{
  "source": "C:\\Users\\Peter\\Desktop\\stuff\\MIUN\\quantitative_research\\video_compression\\videos\\BVI-HD\\BVI-HD_CDVL_videos\\ORIG\\ParkPlay_1920x1080_50fps.mp4",
  "output": "C:\\Users\\Peter\\Desktop\\stuff\\MIUN\\quantitative_research\\video_compression\\compressed_videos\\BVI-HD\\av1\\4\\ParkPlay_1920x1080_50fps_av1.mkv",
  "codec": "av1",
  "ok": "Input #0, mov,mp4,m4a,3gp,3g2,mj2, from 'C:\\Users\\Peter\\Desktop\\stuff\\MIUN\\quantitative_research\\video_compression\\videos\\BVI-HD\\BVI-HD_CDVL_videos\\ORIG\\ParkPlay_1920x1080_50fps.mp4':\n  Metadata:\n    major_brand     : isom\n    minor_version   : 512\n    compatible_brands: isomiso2avc1mp41\n    encoder         : Lavf54.28.101\n  Duration: 00:00:05.00, start: 0.000000, bitrate: 620563 kb/s\n  Stream #0:0[0x1](und): Video: h264 (High 4:4:4 Predictive) (avc1 / 0x31637661), yuv420p(progressive), 1920x1080, 620558 kb/s, 50 fps, 50 tbr, 50 tbn (default)\n    Metadata:\n      handler_name    : VideoHandler\n      vendor_id       : [0][0][0][0]\n[out#0/matroska @ 00000223db22f0c0] Codec AVOption b:a (set bitrate (in bits/s)) has not been used for any stream. The most likely reason is either wrong type (e.g. a video option with no video streams) or that it is a private option of some decoder which was not actually used for any stream.\nStream mapping:\n  Stream #0:0 -> #0:0 (h264 (native) -> av1 (libsvtav1))\nPress [q] to stop, [?] for help\nSvt[info]: -------------------------------------------\nSvt[info]: SVT [version]:\tSVT-AV1 Encoder Lib v3.1.0-19-g6ecfe8ec\nSvt[info]: SVT [build]  :\tGCC 15.2.0\t 64 bit\nSvt[info]: LIB Build date: Aug 17 2025 11:37:13\nSvt[info]: -------------------------------------------\nSvt[info]: Level of Parallelism: 5\nSvt[info]: Number of PPCS 93\nSvt[info]: [asm level on system : up to avx2]\nSvt[info]: [asm level selected : up to avx2]\nSvt[info]: -------------------------------------------\nSvt[info]: SVT [config]: main profile\ttier (auto)\tlevel (auto)\nSvt[info]: SVT [config]: width / height / fps numerator / fps denominator \t\t: 1920 / 1080 / 50 / 1\nSvt[info]: SVT [config]: bit-depth / color format \t\t\t\t\t: 8 / YUV420\nSvt[info]: SVT [config]: preset / tune / pred struct \t\t\t\t\t: 4 / PSNR / random access\nSvt[info]: SVT [config]: gop size / mini-gop size / key-frame type \t\t\t: 321 / 16 / key frame\nSvt[info]: SVT [config]: BRC mode / target bitrate (kbps)\t\t\t\t: VBR / 4000 \nSvt[info]: SVT [config]: AQ mode / Variance Boost \t\t\t\t\t: 2 / 0\nSvt[info]: SVT [config]: sharpness / luminance-based QP bias \t\t\t\t: 0 / 0\nSvt[info]: SVT [config]: QP scale compress strength \t\t\t\t\t: 0\nSvt[info]: -------------------------------------------\nOutput #0, matroska, to 'C:\\Users\\Peter\\Desktop\\stuff\\MIUN\\quantitative_research\\video_compression\\compressed_videos\\BVI-HD\\av1\\4\\ParkPlay_1920x1080_50fps_av1.mkv':\n  Metadata:\n    major_brand     : isom\n    minor_version   : 512\n    compatible_brands: isomiso2avc1mp41\n    encoder         : Lavf62.3.100\n  Stream #0:0(und): Video: av1 (AV01 / 0x31305641), yuv420p(tv, progressive), 1920x1080, q=2-31, 4000 kb/s, 50 fps, 1k tbn (default)\n    Metadata:\n      encoder         : Lavc62.11.100 libsvtav1\n      handler_name    : VideoHandler\n      vendor_id       : [0][0][0][0]\n    Side data:\n      cpb: bitrate max/min/avg: 0/0/4000000 buffer size: 4000000 vbv_delay: N/A\nframe=    0 fps=0.0 q=0.0 size=       0KiB time=N/A bitrate=N/A speed=N/A elapsed=0:00:01.05    \nframe=    0 fps=0.0 q=0.0 size=       0KiB time=N/A bitrate=N/A speed=N/A elapsed=0:00:01.58    \nframe=    0 fps=0.0 q=0.0 size=       0KiB time=N/A bitrate=N/A speed=N/A elapsed=0:00:02.10    \nframe=    0 fps=0.0 q=0.0 size=       0KiB time=N/A bitrate=N/A speed=N/A elapsed=0:00:02.62    \nframe=    0 fps=0.0 q=0.0 size=       0KiB time=N/A bitrate=N/A speed=N/A elapsed=0:00:03.14    \nframe=    0 fps=0.0 q=0.0 size=       0KiB time=N/A bitrate=N/A speed=N/A elapsed=0:00:03.67    \nframe=    1 fps=0.2 q=28.0 size=       1KiB time=00:00:00.00 bitrate=N/A speed=   0x elapsed=0:00:04.18    \nframe=    1 fps=0.2 q=28.0 size=       1KiB time=00:00:00.00 bitrate=N/A speed=   0x elapsed=0:00:04.71    \nframe=    1 fps=0.2 q=28.0 size=       1KiB time=00:00:00.00 bitrate=N/A speed=   0x elapsed=0:00:05.23    \nframe=    5 fps=0.9 q=42.0 size=       1KiB time=00:00:00.08 bitrate=  71.3kbits/s speed=0.0139x elapsed=0:00:05.75    \nframe=    8 fps=1.3 q=44.0 size=       1KiB time=00:00:00.14 bitrate=  40.7kbits/s speed=0.0223x elapsed=0:00:06.27    \nframe=   11 fps=1.6 q=43.0 size=       1KiB time=00:00:00.20 bitrate=  28.5kbits/s speed=0.0294x elapsed=0:00:06.79    \nframe=   14 fps=1.9 q=45.0 size=       1KiB time=00:00:00.26 bitrate=  21.9kbits/s speed=0.0355x elapsed=0:00:07.33    \nframe=   18 fps=2.3 q=46.0 size=       1KiB time=00:00:00.34 bitrate=  16.8kbits/s speed=0.0431x elapsed=0:00:07.88    \nframe=   21 fps=2.5 q=43.0 size=       1KiB time=00:00:00.40 bitrate=  14.3kbits/s speed=0.0476x elapsed=0:00:08.40    \nframe=   23 fps=2.6 q=41.0 size=       1KiB time=00:00:00.44 bitrate=  13.0kbits/s speed=0.0494x elapsed=0:00:08.91    \nframe=   27 fps=2.9 q=43.0 size=       1KiB time=00:00:00.52 bitrate=  11.0kbits/s speed=0.0551x elapsed=0:00:09.43    \nframe=   31 fps=3.1 q=43.0 size=       1KiB time=00:00:00.60 bitrate=   9.5kbits/s speed=0.0601x elapsed=0:00:09.98    \nframe=   35 fps=3.3 q=45.0 size=       1KiB time=00:00:00.68 bitrate=   8.4kbits/s speed=0.0645x elapsed=0:00:10.54    \nframe=   38 fps=3.4 q=44.0 size=       1KiB time=00:00:00.74 bitrate=   7.7kbits/s speed=0.0669x elapsed=0:00:11.06    \nframe=   39 fps=3.4 q=41.0 size=       1KiB time=00:00:00.76 bitrate=   7.5kbits/s speed=0.0656x elapsed=0:00:11.58    \nframe=   43 fps=3.6 q=43.0 size=       1KiB time=00:00:00.84 bitrate=   6.8kbits/s speed=0.0694x elapsed=0:00:12.10    \nframe=   48 fps=3.8 q=47.0 size=       1KiB time=00:00:00.94 bitrate=   6.1kbits/s speed=0.0744x elapsed=0:00:12.63    \nframe=   50 fps=3.8 q=47.0 size=       1KiB time=00:00:00.98 bitrate=   5.8kbits/s speed=0.0746x elapsed=0:00:13.14    \nframe=   53 fps=3.9 q=43.0 size=       1KiB time=00:00:01.04 bitrate=   5.5kbits/s speed=0.0761x elapsed=0:00:13.66    \nframe=   55 fps=3.9 q=45.0 size=       1KiB time=00:00:01.08 bitrate=   5.3kbits/s speed=0.0762x elapsed=0:00:14.17    \nframe=   58 fps=3.9 q=47.0 size=       1KiB time=00:00:01.14 bitrate=   5.0kbits/s speed=0.0776x elapsed=0:00:14.69    \nframe=   61 fps=4.0 q=40.0 size=       1KiB time=00:00:01.20 bitrate=   4.8kbits/s speed=0.0789x elapsed=0:00:15.21    \nframe=   66 fps=4.2 q=48.0 size=       1KiB time=00:00:01.30 bitrate=   4.4kbits/s speed=0.0826x elapsed=0:00:15.74    \nframe=   69 fps=4.2 q=44.0 size=       1KiB time=00:00:01.36 bitrate=   4.2kbits/s speed=0.0836x elapsed=0:00:16.26    \nframe=   71 fps=4.2 q=43.0 size=       1KiB time=00:00:01.40 bitrate=   4.1kbits/s speed=0.0834x elapsed=0:00:16.79    \nframe=   75 fps=4.3 q=45.0 size=       1KiB time=00:00:01.48 bitrate=   3.9kbits/s speed=0.0855x elapsed=0:00:17.31    \nframe=   80 fps=4.5 q=50.0 size=       1KiB time=00:00:01.58 bitrate=   3.6kbits/s speed=0.0886x elapsed=0:00:17.83    \nframe=   85 fps=4.6 q=46.0 size=       1KiB time=00:00:01.68 bitrate=   3.4kbits/s speed=0.0914x elapsed=0:00:18.37    \nframe=   88 fps=4.7 q=50.0 size=       1KiB time=00:00:01.74 bitrate=   3.3kbits/s speed=0.0921x elapsed=0:00:18.90    \nframe=   92 fps=4.7 q=50.0 size=       1KiB time=00:00:01.82 bitrate=   3.1kbits/s speed=0.0937x elapsed=0:00:19.42    \nframe=   97 fps=4.9 q=31.0 size=       1KiB time=00:00:01.92 bitrate=   3.0kbits/s speed=0.096x elapsed=0:00:19.99    \nframe=  102 fps=5.0 q=50.0 size=       1KiB time=00:00:02.02 bitrate=   2.8kbits/s speed=0.0983x elapsed=0:00:20.55    \nframe=  107 fps=5.1 q=47.0 size=       1KiB time=00:00:02.12 bitrate=   2.7kbits/s speed=0.101x elapsed=0:00:21.07    \nframe=  112 fps=5.2 q=51.0 size=       1KiB time=00:00:02.22 bitrate=   2.6kbits/s speed=0.103x elapsed=0:00:21.59    \nframe=  118 fps=5.3 q=50.0 size=       1KiB time=00:00:02.34 bitrate=   2.4kbits/s speed=0.106x elapsed=0:00:22.13    \nframe=  122 fps=5.4 q=50.0 size=       1KiB time=00:00:02.42 bitrate=   2.4kbits/s speed=0.107x elapsed=0:00:22.68    \nframe=  127 fps=5.5 q=47.0 size=       1KiB time=00:00:02.52 bitrate=   2.3kbits/s speed=0.109x elapsed=0:00:23.21    \nframe=  132 fps=5.5 q=50.0 size=       1KiB time=00:00:02.62 bitrate=   2.2kbits/s speed=0.11x elapsed=0:00:23.79    \nframe=  136 fps=5.6 q=50.0 size=       1KiB time=00:00:02.70 bitrate=   2.1kbits/s speed=0.111x elapsed=0:00:24.33    \nframe=  140 fps=5.6 q=48.0 size=       1KiB time=00:00:02.78 bitrate=   2.1kbits/s speed=0.111x elapsed=0:00:24.93    \nframe=  144 fps=5.6 q=49.0 size=       1KiB time=00:00:02.86 bitrate=   2.0kbits/s speed=0.112x elapsed=0:00:25.53    \nframe=  148 fps=5.7 q=50.0 size=       1KiB time=00:00:02.94 bitrate=   1.9kbits/s speed=0.113x elapsed=0:00:26.08    \nframe=  151 fps=5.7 q=49.0 size=       1KiB time=00:00:03.00 bitrate=   1.9kbits/s speed=0.112x elapsed=0:00:26.68    \nframe=  155 fps=5.7 q=47.0 size=       1KiB time=00:00:03.04 bitrate=   1.9kbits/s speed=0.111x elapsed=0:00:27.30    \nframe=  157 fps=5.6 q=44.0 size=       1KiB time=00:00:03.12 bitrate=   1.8kbits/s speed=0.111x elapsed=0:00:27.99    \nframe=  161 fps=5.6 q=35.0 size=       1KiB time=00:00:03.20 bitrate=   1.8kbits/s speed=0.112x elapsed=0:00:28.63    \nframe=  165 fps=5.6 q=47.0 size=       1KiB time=00:00:03.28 bitrate=   1.7kbits/s speed=0.112x elapsed=0:00:29.32    \nframe=  169 fps=5.6 q=43.0 size=       1KiB time=00:00:03.36 bitrate=   1.7kbits/s speed=0.112x elapsed=0:00:29.92    \nframe=  169 fps=5.5 q=43.0 size=       1KiB time=00:00:03.36 bitrate=   1.7kbits/s speed=0.11x elapsed=0:00:30.47    \nframe=  173 fps=5.6 q=47.0 size=       1KiB time=00:00:03.44 bitrate=   1.7kbits/s speed=0.111x elapsed=0:00:31.03    \nframe=  175 fps=5.5 q=46.0 size=       1KiB time=00:00:03.48 bitrate=   1.6kbits/s speed=0.11x elapsed=0:00:31.58    \nframe=  179 fps=5.6 q=48.0 size=       1KiB time=00:00:03.56 bitrate=   1.6kbits/s speed=0.111x elapsed=0:00:32.16    \nframe=  183 fps=5.6 q=48.0 size=       1KiB time=00:00:03.60 bitrate=   1.6kbits/s speed=0.11x elapsed=0:00:32.74    \nframe=  185 fps=5.6 q=43.0 size=       1KiB time=00:00:03.68 bitrate=   1.6kbits/s speed=0.11x elapsed=0:00:33.30    \nframe=  189 fps=5.6 q=43.0 size=       1KiB time=00:00:03.72 bitrate=   1.5kbits/s speed=0.11x elapsed=0:00:33.90    \nframe=  191 fps=5.5 q=46.0 size=       1KiB time=00:00:03.80 bitrate=   1.5kbits/s speed=0.11x elapsed=0:00:34.47    \nframe=  197 fps=5.6 q=46.0 size=       1KiB time=00:00:03.92 bitrate=   1.5kbits/s speed=0.112x elapsed=0:00:35.04    \nframe=  201 fps=5.6 q=42.0 size=       1KiB time=00:00:04.00 bitrate=   1.4kbits/s speed=0.112x elapsed=0:00:35.57    \nframe=  203 fps=5.6 q=48.0 size=       1KiB time=00:00:04.04 bitrate=   1.4kbits/s speed=0.112x elapsed=0:00:36.10    \nframe=  207 fps=5.6 q=46.0 size=       1KiB time=00:00:04.12 bitrate=   1.4kbits/s speed=0.112x elapsed=0:00:36.69    \nframe=  211 fps=5.7 q=48.0 size=       1KiB time=00:00:04.20 bitrate=   1.4kbits/s speed=0.113x elapsed=0:00:37.25    \nframe=  217 fps=5.7 q=43.0 size=       1KiB time=00:00:04.32 bitrate=   1.3kbits/s speed=0.114x elapsed=0:00:37.79    \nframe=  219 fps=5.7 q=48.0 size=       1KiB time=00:00:04.36 bitrate=   1.3kbits/s speed=0.114x elapsed=0:00:38.32    \nframe=  225 fps=5.8 q=36.0 size=       1KiB time=00:00:04.48 bitrate=   1.3kbits/s speed=0.115x elapsed=0:00:38.88    \nframe=  229 fps=5.8 q=47.0 size=       1KiB time=00:00:04.56 bitrate=   1.3kbits/s speed=0.116x elapsed=0:00:39.41    \nframe=  233 fps=5.8 q=43.0 size=       1KiB time=00:00:04.64 bitrate=   1.2kbits/s speed=0.116x elapsed=0:00:39.93    \nframe=  247 fps=6.1 q=50.0 size=       1KiB time=00:00:04.92 bitrate=   1.2kbits/s speed=0.122x elapsed=0:00:40.45    \n[out#0/matroska @ 00000223db22f0c0] video:2556KiB audio:0KiB subtitle:0KiB other streams:0KiB global headers:0KiB muxing overhead: 0.073205%\nframe=  250 fps=6.2 q=50.0 Lsize=    2558KiB time=00:00:04.98 bitrate=4207.6kbits/s speed=0.123x elapsed=0:00:40.54    \n",
  "seconds": 41.018369913101196,
  "probe_out": {}
}